HIERARCHY
ROOT hips
{
  OFFSET 0 11.86390953 0.3628582958
  CHANNELS 6 Xposition Yposition Zposition Yrotation Xrotation Zrotation
  JOINT spine
  {
    OFFSET 0 0.05383551117999996 0
    CHANNELS 3 Yrotation Xrotation Zrotation
    JOINT chest
    {
      OFFSET 0 0.6394558760401424 0
      CHANNELS 3 Yrotation Xrotation Zrotation
      JOINT neck
      {
        OFFSET 0 2.720089088562982 0
        CHANNELS 3 Yrotation Xrotation Zrotation
        JOINT head
        {
          OFFSET 0 0.37880844870545777 0
          CHANNELS 3 Yrotation Xrotation Zrotation
          JOINT rightEye
          {
            OFFSET -0.42867780714 0.7547055649100001 0.7381831347
            CHANNELS 3 Yrotation Xrotation Zrotation
            End Site
            {
              OFFSET -0.42867780714 0.7547055649100001 0.7381831347
            }
          }
          JOINT leftEye
          {
            OFFSET 0.428676479 0.7547055559999993 0.7381844503
            CHANNELS 3 Yrotation Xrotation Zrotation
            End Site
            {
              OFFSET 0.428676479 0.7547055559999993 0.7381844503
            }
          }
          JOINT jaw
          {
            OFFSET -0.18933892286100001 1.5626303011000007 1.137441874206
            CHANNELS 3 Yrotation Xrotation Zrotation
            End Site
            {
              OFFSET -0.18933892286100001 1.5626303011000007 1.137441874206
            }
          }
        }
      }
      JOINT rightShoulder
      {
        OFFSET -0.6795351508 2.0665205 0
        CHANNELS 3 Yrotation Xrotation Zrotation
        JOINT rightUpperArm
        {
          OFFSET -0.7287400483531672 0 0
          CHANNELS 3 Yrotation Xrotation Zrotation
          JOINT rightLowerArm
          {
            OFFSET -1.9872982039174532 0 0
            CHANNELS 3 Yrotation Xrotation Zrotation
            JOINT rightHand
            {
              OFFSET -2.6451847532219275 0 0
              CHANNELS 3 Yrotation Xrotation Zrotation
              JOINT rightLittleProximal
              {
                OFFSET -0.8008804099999995 -0.09592044000000044 -0.26183688629999996
                CHANNELS 3 Yrotation Xrotation Zrotation
                JOINT rightLittleIntermediate
                {
                  OFFSET -0.2473955153999997 -0.02541697026000067 0.002370178700999967
                  CHANNELS 3 Yrotation Xrotation Zrotation
                  JOINT rightLittleDistal
                  {
                    OFFSET -0.163687229200001 -0.015790700860001117 -0.0004274845300000635
                    CHANNELS 3 Yrotation Xrotation Zrotation
                    End Site
                    {
                      OFFSET -0.163687229200001 -0.015790700860001117 -0.0004274845300000635
                    }
                  }
                }
              }
              JOINT rightRingProximal
              {
                OFFSET -0.8393382799999985 -0.06223833561000025 -0.09213143500000005
                CHANNELS 3 Yrotation Xrotation Zrotation
                JOINT rightRingIntermediate
                {
                  OFFSET -0.3284497260000011 -0.03264224524000103 0.009408593183000052
                  CHANNELS 3 Yrotation Xrotation Zrotation
                  JOINT rightRingDistal
                  {
                    OFFSET -0.19447660429999902 -0.021730899850000318 0.003074347969000052
                    CHANNELS 3 Yrotation Xrotation Zrotation
                    End Site
                    {
                      OFFSET -0.19447660429999902 -0.021730899850000318 0.003074347969000052
                    }
                  }
                }
              }
              JOINT rightMiddleProximal
              {
                OFFSET -0.8473005199999989 -0.06735503500000095 0.10541820299999995
                CHANNELS 3 Yrotation Xrotation Zrotation
                JOINT rightMiddleIntermediate
                {
                  OFFSET -0.3450455799999995 -0.02481901642000084 0.019012570390000032
                  CHANNELS 3 Yrotation Xrotation Zrotation
                  JOINT rightMiddleDistal
                  {
                    OFFSET -0.23542332000000088 -0.025003910029999243 0.0075583457949999905
                    CHANNELS 3 Yrotation Xrotation Zrotation
                    End Site
                    {
                      OFFSET -0.23542332000000088 -0.025003910029999243 0.0075583457949999905
                    }
                  }
                }
              }
              JOINT rightIndexProximal
              {
                OFFSET -0.8008568281999987 -0.09897839600000169 0.29462796
                CHANNELS 3 Yrotation Xrotation Zrotation
                JOINT rightIndexIntermediate
                {
                  OFFSET -0.30524754480000016 -0.024634122809999992 0.02743375304999998
                  CHANNELS 3 Yrotation Xrotation Zrotation
                  JOINT rightIndexDistal
                  {
                    OFFSET -0.23067378950000017 -0.016876459159999913 0.008484125099999983
                    CHANNELS 3 Yrotation Xrotation Zrotation
                    End Site
                    {
                      OFFSET -0.23067378950000017 -0.016876459159999913 0.008484125099999983
                    }
                  }
                }
              }
              JOINT rightThumbProximal
              {
                OFFSET -0.25574064999999935 -0.12833189930000155 0.22385698609999993
                CHANNELS 3 Yrotation Xrotation Zrotation
                JOINT rightThumbIntermediate
                {
                  OFFSET -0.22791743260000086 -0.07103586192999978 0.27385039
                  CHANNELS 3 Yrotation Xrotation Zrotation
                  JOINT rightThumbDistal
                  {
                    OFFSET -0.13610267659999975 -0.03369390969999997 0.14246511509999996
                    CHANNELS 3 Yrotation Xrotation Zrotation
                    End Site
                    {
                      OFFSET -0.13610267659999975 -0.03369390969999997 0.14246511509999996
                    }
                  }
                }
              }
            }
          }
        }
      }
      JOINT leftShoulder
      {
        OFFSET 0.6795338396 2.0665205 0
        CHANNELS 3 Yrotation Xrotation Zrotation
        JOINT leftUpperArm
        {
          OFFSET 0.7287383950230443 0 0
          CHANNELS 3 Yrotation Xrotation Zrotation
          JOINT leftLowerArm
          {
            OFFSET 1.9872997282019604 0 0
            CHANNELS 3 Yrotation Xrotation Zrotation
            JOINT leftHand
            {
              OFFSET 2.6451820781302327 0 0
              CHANNELS 3 Yrotation Xrotation Zrotation
              JOINT leftLittleProximal
              {
                OFFSET 0.8008804099999995 -0.09592306899999814 -0.2618342639000001
                CHANNELS 3 Yrotation Xrotation Zrotation
                JOINT leftLittleIntermediate
                {
                  OFFSET 0.2473981400000007 -0.02542352681000093 0.0023609995859999455
                  CHANNELS 3 Yrotation Xrotation Zrotation
                  JOINT leftLittleDistal
                  {
                    OFFSET 0.1636846068000002 -0.015794634789999318 -0.00043272972159996703
                    CHANNELS 3 Yrotation Xrotation Zrotation
                    End Site
                    {
                      OFFSET 0.1636846068000002 -0.015794634789999318 -0.00043272972159996703
                    }
                  }
                }
              }
              JOINT leftRingProximal
              {
                OFFSET 0.8393409199999996 -0.062242267999998324 -0.0921281570000001
                CHANNELS 3 Yrotation Xrotation Zrotation
                JOINT leftRingIntermediate
                {
                  OFFSET 0.3284471036000003 -0.03264224524000103 0.009405970574000042
                  CHANNELS 3 Yrotation Xrotation Zrotation
                  JOINT leftRingDistal
                  {
                    OFFSET 0.1944779099999996 -0.021732211159998904 0.003073036670000001
                    CHANNELS 3 Yrotation Xrotation Zrotation
                    End Site
                    {
                      OFFSET 0.1944779099999996 -0.021732211159998904 0.003073036670000001
                    }
                  }
                }
              }
              JOINT leftMiddleProximal
              {
                OFFSET 0.8473005200000001 -0.06736028199999788 0.1054214809999999
                CHANNELS 3 Yrotation Xrotation Zrotation
                JOINT leftMiddleIntermediate
                {
                  OFFSET 0.3450455799999995 -0.024824261000000014 0.019013225990000007
                  CHANNELS 3 Yrotation Xrotation Zrotation
                  JOINT leftMiddleDistal
                  {
                    OFFSET 0.2354259489999998 -0.025005222000000327 0.0075590014499999705
                    CHANNELS 3 Yrotation Xrotation Zrotation
                    End Site
                    {
                      OFFSET 0.2354259489999998 -0.025005222000000327 0.0075590014499999705
                    }
                  }
                }
              }
              JOINT leftIndexProximal
              {
                OFFSET 0.8008594516999996 -0.09898495199999946 0.29463124239999994
                CHANNELS 3 Yrotation Xrotation Zrotation
                JOINT leftIndexIntermediate
                {
                  OFFSET 0.30524754480000016 -0.024632811499998963 0.02743047472
                  CHANNELS 3 Yrotation Xrotation Zrotation
                  JOINT leftIndexDistal
                  {
                    OFFSET 0.23067378950000017 -0.016876459159999913 0.008481502700000004
                    CHANNELS 3 Yrotation Xrotation Zrotation
                    End Site
                    {
                      OFFSET 0.23067378950000017 -0.016876459159999913 0.008481502700000004
                    }
                  }
                }
              }
              JOINT leftThumbProximal
              {
                OFFSET 0.25574326469999953 -0.12833321050000013 0.22385764169999997
                CHANNELS 3 Yrotation Xrotation Zrotation
                JOINT leftThumbIntermediate
                {
                  OFFSET 0.22804987480000094 -0.07138466829999968 0.273648441
                  CHANNELS 3 Yrotation Xrotation Zrotation
                  JOINT leftThumbDistal
                  {
                    OFFSET 0.13614857189999907 -0.033867001519998885 0.14238119169999996
                    CHANNELS 3 Yrotation Xrotation Zrotation
                    End Site
                    {
                      OFFSET 0.13614857189999907 -0.033867001519998885 0.14238119169999996
                    }
                  }
                }
              }
            }
          }
        }
      }
    }
  }
  JOINT rightUpperLeg
  {
    OFFSET -0.9749898906000001 -1.8495733739999998 0
    CHANNELS 3 Yrotation Xrotation Zrotation
    JOINT rightLowerLeg
    {
      OFFSET 0 -4.1566544686813165 0
      CHANNELS 3 Yrotation Xrotation Zrotation
      JOINT rightFoot
      {
        OFFSET 0.14539718599999998 -4.225553926 -0.3666210900000001
        CHANNELS 3 Yrotation Xrotation Zrotation
        JOINT rightToes
        {
          OFFSET 0.1706738473 -0.9584117400000015 1.0093348617
          CHANNELS 3 Yrotation Xrotation Zrotation
          End Site
          {
            OFFSET 0.1706738473 -0.9584117400000015 1.0093348617
          }
        }
      }
    }
  }
  JOINT leftUpperLeg
  {
    OFFSET 0.9749898906000001 -1.8495733739999998 0
    CHANNELS 3 Yrotation Xrotation Zrotation
    JOINT leftLowerLeg
    {
      OFFSET 0 -4.156653488267941 0
      CHANNELS 3 Yrotation Xrotation Zrotation
      JOINT leftFoot
      {
        OFFSET -0.14537357999999995 -4.225555399999999 -0.36661124279999996
        CHANNELS 3 Yrotation Xrotation Zrotation
        JOINT leftToes
        {
          OFFSET -0.17066467000000002 -0.9584157000000019 1.0093348617
          CHANNELS 3 Yrotation Xrotation Zrotation
          End Site
          {
            OFFSET -0.17066467000000002 -0.9584157000000019 1.0093348617
          }
        }
      }
    }
  }
}
MOTION
Frames: 4
Frame Time: 0.03333333333333333
0.0026021935045719147 -0.15106563504150472 0.041107866913080215 0.38282397876488905 2.6894201677125857 -0.3470713895127638 -0.3472880912519962 -1.2435113611234319 0.33644767493580013 -1.4584935141476298 -4.9570250582347555 1.6484175467534334 -0.16873502767741574 2.4337337463654687 0.6772866765021778 -1.140819331885617 2.871507605873851 -0.9981727123639378 0 0 0 0 0 0 0 0 0 13.944960705708732 1.2981701631813605 2.693701800546372 11.158368238708746 12.558704519505453 77.39649566897091 18.141298342988186 0.036796065867519295 -0.2304473271933254 7.15392721818998 37.49712031255885 -2.984124496209523 -0.30178568592301247 -5.2414896430728195 26.7443873604306 -1.5441046978174324 0.2883242057529418 24.49500161999097 -0.6148419712904286 0.025611390968879124 8.1611465310697 -0.4057524053904986 -0.9515089373230526 21.126896799758423 -1.2642300655505772 0.20321190740160214 18.41052726993754 -1.2573418361104347 0.20940966390486188 18.506799862498433 -5.114665537083471 0.7240822914701048 16.569733857366163 -0.8696242951457228 0.11088950441303504 14.248114763987196 -1.0061528676603186 0.1208354074405511 14.300471950709358 -5.716938455585199 1.638178963158835 9.624627524403861 -0.4956530420336779 0.03386268582400935 7.687083672953813 -0.5358232912003184 0.03531372109099732 7.700359246835821 2.4368150916460265 -4.316278639195487 -5.1730321536374495 -13.542195513526316 5.813479127045925 -3.1976531966914847 2.781774278805489 -9.313113381886325 -12.996111858396008 -9.601901163412311 0.9041063308846128 -8.478019619817184 -18.010706949878134 12.89795161161274 -76.24978578018072 -17.289279413954088 0.033411573095929445 0.21997737865798606 -7.9818457688633195 -7.126043573020339 13.94864354593665 -3.625673974725615 -4.987943012041698 -18.87166001024732 1.3639291573932437 0.25093112002355195 -15.804505117980337 1.3838286831963746 0.2498957761869729 -15.842653906188136 -0.3795977425267776 -1.083469605283914 -18.11877486866771 1.2834747306182208 0.16349887566822463 -14.503429826108384 1.2959174631787103 0.16673940033979456 -14.64714879000279 3.6234756479720343 0.22288716381560608 -13.554397597293695 0.9304625238929364 0.08452031993011269 -10.433255946418761 0.9310352840421433 0.08506590856795915 -10.440080379116084 4.238097299364757 1.4336496349748824 -12.477360862839696 0.8542021846148262 0.07085018396655224 -9.460084875526128 0.8364177763050337 0.06988458525472745 -9.479254351333624 2.139581090596728 -1.9142171381075561 5.144714005348092 11.813789377683976 5.8508488528097775 1.6581019116089013 -3.925075389484734 -8.825705220835943 12.140604887088323 -1.8398132580572697 -5.7001732522909005 -0.4881850152428078 0.03206476190834592 13.42406812754331 0.5207742339642122 -13.568092024520153 -10.515614326819655 4.0020342514268386 -0.0000025243948396771257 1.11439961644734 -8.913323246256664e-8 -3.3572103301888827 -5.485065463517177 -0.9165216933731104 0.0930981979462001 12.74076063239053 -0.3634427862680974 18.01193755533704 -9.964817880575001 -1.5481471688286854 -0.0000019721930081060028 -6.755985737561708 -0.000002762457959064882
0.003193083219230175 -0.16225318844726644 0.03759748488664627 0.1699569769510422 2.768424064954648 -0.3898981338110585 -0.32967410622715726 -1.1323807708735179 0.3961607552166328 -1.4091761459484964 -4.724802953689768 1.6596109805664603 -0.151411499354698 2.4126067955223616 0.7275844330812371 -0.9806821261561818 2.8783581565646887 -1.1019792639319863 0 0 0 0 0 0 0 0 0 13.88116091837996 1.2386111517184144 3.419169038536376 11.260452865016703 12.42440797340008 76.30082572951548 18.069719834113418 0.036510151689120356 -0.2295309547585879 7.309191738796689 37.21490923272107 -2.4905827406476737 -0.679942818828519 -5.0941710511055875 27.024501001613313 -1.6366228042523818 0.32749115785725386 25.9604560677627 -0.6674990096051309 0.03216690765303883 8.935853376883774 -0.7397061599656848 -0.8387725469690128 21.382021276237406 -1.3590754418546092 0.23633474036596405 19.87715467326871 -1.307448783598166 0.22685508071698135 19.281342902695897 -5.130101568971679 0.7378278851187154 16.848710885131975 -0.9668803500189516 0.13584776071455695 15.71413030309893 -1.0574780046820769 0.13424327545258566 15.07510317514702 -5.608410298672303 1.6341939507249699 9.917521785421723 -0.5949905133157605 0.04828429715980499 9.153059994992415 -0.5883543469091397 0.04280126101773833 8.475062241685798 2.279141541697166 -3.652079065839169 -5.172708429131094 -13.881634240961018 5.949089199747415 -3.221830871599235 2.7817777354387743 -9.313112516708516 -12.996114387445711 -9.900586543323346 0.9177242474759403 -9.024425687599809 -17.73894712031245 12.612277732008337 -75.2203400639277 -17.272502235726854 0.03334457519870319 0.21977346185873356 -7.251145760741812 -6.370240324903632 13.02483446850392 -2.967472760089252 -4.830431303175341 -19.103149240117418 1.3832510401889548 0.25732061139950557 -16.03178988921648 1.3666056846200867 0.24428816541079762 -15.640409355450924 -0.01907598470475142 -0.9733547509072888 -18.192646305335245 1.2922905746468507 0.16580987704871095 -14.605269262795845 1.304627225362259 0.16900751312744816 -14.747775733775187 3.660397334365457 0.23166816145841146 -13.492193616820288 0.9392292432280515 0.08614459274303586 -10.532768256242212 0.9398974560487897 0.08669700493086566 -10.540909710636903 3.9257075336286578 1.33285382780836 -12.243816632831056 0.8498645792938773 0.07011507763080763 -9.410831553708814 0.8322610419935123 0.06917791361931967 -9.432182502770615 1.9355462218768669 -1.9900596114342188 5.117655108261869 11.578391376422907 5.813741303352667 1.6227857558684702 -4.243675788881999 -8.921921171909858 12.134166666995124 -1.7205086542361736 -6.20612319290332 -0.44594126639942716 0.13212050935857744 14.192203453713262 0.5221861585694048 -13.58773944827737 -10.847539354303162 4.087140642314253 -0.0000016298790301256711 1.114390863611931 7.044584650763533e-7 -3.3576732112559142 -6.0016337470778645 -0.8817028134612515 0.2989287678102605 13.6054575038587 -0.3235799968856758 18.050482927039624 -10.368236973168408 -1.7001753440344838 0.000006380647214755954 -6.755987457048825 -0.0000037294493082054203
0.007743133697658777 -0.18958835537841878 0.02328811213374138 -0.18920625751855008 3.11488655242391 -0.49506551137439275 -0.30925681367020136 -0.9529349362416146 0.5872898216272983 -1.3328061143709555 -4.274551064770531 1.7506445568093367 -0.029486536298302272 2.3414375206555116 0.8658143940122479 -0.15965018553004823 3.0007610556449573 -1.5229566650403006 0 0 0 0 0 0 0 0 0 13.616555606918803 1.184303595756689 4.723007981540148 11.582223750212291 12.08767490127388 73.98400950780905 18.01161563446476 0.036282954471884336 -0.2288650562123569 7.625907712424259 36.58988274330474 -1.424316644255834 -1.4220772672604494 -4.800652430275661 27.638777583784222 -1.837157050213717 0.42226540703818516 29.195965600669343 -0.783431786061148 0.04915589364603633 10.64640656089338 -1.4175286201702573 -0.6017910179851186 21.946806501071528 -1.5652741867359978 0.31799568355320734 23.115263970010762 -1.4172168561201597 0.26774887228538324 20.991452159266267 -5.1655402814606335 0.7698410848964629 17.49262737065959 -1.1791729516215734 0.19973490607057792 18.950924467244995 -1.1701341502025961 0.16631008378460319 16.785423191527634 -5.4320554856229 1.6396444247806943 10.59616644064709 -0.8128879566953936 0.0891471113969005 12.390206885563991 -0.7039399769312251 0.06175339975842295 10.185590892984267 1.9143146023972697 -2.1826176828336314 -5.16991542268713 -14.673337246301564 6.250949664101538 -3.28448075556104 2.7817755750429733 -9.313112516708516 -12.996111858396008 -10.49641185254524 0.9815404296515794 -10.14116750256442 -17.292419826361822 11.817620226313844 -73.03144167354813 -17.288941835748574 0.033419597235547535 0.21998770390897404 -5.7759194032857915 -4.775504706700648 10.978103500102305 -1.567984216773193 -4.475861279503022 -19.59110992095028 1.4244260366719301 0.27119039187485766 -16.516942684829115 1.3297859165817296 0.23255009019129663 -15.208683769547662 0.7493193924447757 -0.7346419791832853 -18.348128436565247 1.311107401530917 0.1707486854105023 -14.822745402176164 1.3232025314408393 0.17395728801227742 -14.962557601481455 3.739281924682232 0.2501631166054433 -13.359347481497895 0.9579093793539486 0.08963722475711 -10.745249905748954 0.9588253169313347 0.0902656496259521 -10.756121561450938 3.256135272539371 1.1265498580672209 -11.744008459549809 0.8405862488646592 0.06855685287400057 -9.305688529689641 0.8233995159993177 0.06773546868447645 -9.331661322163109 1.5002371947846143 -2.15250787463421 5.060475554170876 11.076036064032762 5.733832933759099 1.547759915770369 -4.923815714144371 -9.127972533356848 12.1213736153575 -1.4159635706060199 -7.557380329167148 -0.35484197307665616 0.5656430663233344 15.932346469395386 0.6261397803577486 -13.987011804874697 -11.562839488357039 4.2794873191982035 -0.000004164896081593403 1.11439641419048 3.366035708422172e-7 -3.588206446587214 -7.4079679613329 -0.8640123255048028 0.7971915921858961 15.577441956886663 -0.061100057089681366 18.25137826170613 -11.204201502432266 -2.110019939675291 0.000006200433921592606 -6.755981868715715 -0.00000201010343389364
0.0216103196144104 -0.22414092953613363 -0.0008210476371459663 -0.15573809539673883 3.6491579283445468 -0.5130371505268573 -0.30541960681425767 -0.7620558945840207 0.8925034094462574 -1.2793162343497892 -3.767378630288799 1.9882019655325418 0.31447259052152776 2.2302598516935173 1.0190320906615 1.864600988404733 3.13612545595436 -2.4671648678720675 0 0 0 0 0 0 0 0 0 13.254585224524314 1.208469270804181 5.759490599823962 11.991092721416122 11.840655883060778 71.41194891576514 18.269125819110762 0.03732078325407039 -0.23201641817475097 7.518967441397268 35.374906462385624 -0.7057972572292276 -2.1482142813193335 -4.502617389255747 28.30287000672419 -2.0490124767153075 0.5381126251847381 32.71798990282544 -0.9090232811077706 0.07158723131649838 12.508559200982369 -2.102445031087363 -0.34834475520190233 22.561888695329763 -1.7841031441853559 0.4199843290447641 26.64016773939225 -1.5352645693722227 0.3159732762780026 22.85310775632482 -5.205045624696242 0.8063552625027395 18.217349686432403 -1.405737902066742 0.2827892558622454 22.47444146203653 -1.2916440891639078 0.20502206576087853 18.647313213655607 -5.293763665518393 1.656797964781456 11.362200927177732 -1.0470312493157614 0.14753413007733748 15.91453187670464 -0.8290766115545478 0.08633713225858645 12.047718976210415 1.5079995664499926 -0.583184374333794 -5.159306096859118 -15.571731372387463 6.580136680639051 -3.361275062356937 2.781772334449257 -9.313111651530708 -12.996111858396008 -11.07157622988308 1.0833638251628142 -11.23162725808685 -17.349873808134365 10.503784918772512 -70.68006862935175 -17.19156661395269 0.03304541753192324 0.21877291328667692 -4.273994256792462 -2.9592078369290107 8.560732601627702 -0.07626337373457362 -4.06834640993925 -20.104063765302136 1.4684382625199843 0.2864432920696098 -17.037099998678748 1.2901898366000017 0.22027262255477828 -14.745803962548901 1.5713365429192507 -0.4732767135165336 -18.511412835199742 1.331259630961044 0.17611935979891347 -15.055846104802207 1.3430958493267136 0.17931782470781074 -15.192838892783865 3.823946645377536 0.2695596927344369 -13.216917040350463 0.9779189614061898 0.09348230600495676 -10.973026507203791 0.9790826232548973 0.09414899072457876 -10.986879292874159 2.5343682863425525 0.9187786866203284 -11.206426032224277 0.8306399258253326 0.06694675471334618 -9.192985419603131 0.8138658811728547 0.06617668371531218 -9.223913970006686 1.0338595740107137 -2.327555165440302 5.000037332779172 10.537688463035188 5.647135272069183 1.4679473691343474 -5.653021636177291 -9.349863744750825 12.109151977766365 -1.2124083893015496 -9.301957957210469 -0.4236329108744246 1.1399178053749004 18.01784788743081 0.9032885100595225 -14.780094792110711 -12.409128317119437 4.542403295474229 -0.00000912621444725632 1.11439961644734 -9.378839664944511e-8 -4.29211783667414 -9.210444783368848 -1.0802084274360542 1.4086574031927568 17.734518305329537 0.5488471487804769 18.53330945136713 -11.982515352143851 -2.6444569873191917 6.046056775873703e-7 -6.755985737561708 -0.000003225176773824498
